<?xml version="1.0" standalone="no"?><!DOCTYPE svg PUBLIC "-//W3C//DTD SVG 1.1//EN" "http://www.w3.org/Graphics/SVG/1.1/DTD/svg11.dtd"><svg t="1709624728649" class="icon" viewBox="0 0 1024 1024" version="1.1" xmlns="http://www.w3.org/2000/svg" p-id="937" xmlns:xlink="http://www.w3.org/1999/xlink" width="32" height="32"><path d="M729.063702 86.354853h-30.098332V41.043181c0-22.655836-18.387345-41.043181-41.043181-41.043181s-41.043181 18.387345-41.043181 41.043181v45.311672H407.120992V41.043181C407.120992 18.387345 388.733647 0 366.077811 0s-41.043181 18.387345-41.043181 41.043181v45.311672H294.936298c-138.45233 0-251.731509 113.279179-251.73151 251.731509v434.127405c0 138.45233 113.279179 251.731509 251.73151 251.731509h434.127404c138.45233 0 251.731509-113.279179 251.73151-251.731509V338.086362c0-138.45233-113.279179-251.731509-251.73151-251.731509zM125.29115 772.268491V338.086362c0-93.523728 76.121419-169.645147 169.645148-169.645148h30.098332v11.601539c0 22.655836 18.387345 41.043181 41.043181 41.043181s41.043181-18.387345 41.043181-41.043181v-11.601539h209.758016v11.601539c0 22.655836 18.387345 41.043181 41.043181 41.043181s41.043181-18.387345 41.043181-41.043181v-11.601539h30.098332c93.523728 0 169.645147 76.121419 169.645148 169.645148v293.978623c-130.243694 5.746045-234.383925 113.443352-234.383925 245.055152 0 21.944421 3.009833 43.724669 8.755879 64.738777H294.936298c-93.523728 0-169.645147-76.121419-169.645148-169.645147z m633.378367 167.018384a163.647371 163.647371 0 0 1-12.25823-62.112014c0-86.354853 67.365541-157.222745 152.297563-162.859342v57.952972c0 83.454468-60.579735 152.954254-140.039333 167.018384z" p-id="938"></path><path d="M683.47841 424.277041c0-22.655836-18.387345-41.043181-41.043181-41.04318H381.564771c-22.655836 0-41.043181 18.387345-41.043181 41.04318s18.387345 41.043181 41.043181 41.043181h89.364686v220.702865c0 22.655836 18.387345 41.043181 41.043181 41.043181s41.043181-18.387345 41.043181-41.043181V465.320222h89.364685c22.655836 0 41.043181-18.387345 41.043181-41.043181z" p-id="939"></path></svg>